<svg id="Capa_1" enable-background="new 0 0 500 500" height="20" viewBox="0 0 500 500" width="20"
     xmlns="http://www.w3.org/2000/svg">
    <linearGradient id="SVGID_1_" gradientUnits="userSpaceOnUse" x1="256" x2="256" y1="512" y2="0">
        <stop offset="0" stop-color="#00b59c"/>
        <stop offset="1" stop-color="#9cffac"/>
    </linearGradient>
    <g>
        <g>
            <path d="m256 0c-140.951 0-256 115.043-256 256 0 40.808 10.669 82.151 30.898 119.919l-20.632 108.273c-.931 4.879.615 9.902 4.128 13.415 3.512 3.512 8.531 5.06 13.414 4.128l108.273-20.633c37.768 20.23 79.111 30.898 119.919 30.898 140.951 0 256-115.041 256-256 0-140.951-115.041-256-256-256zm0 482c-37.428 0-75.493-10.276-110.081-29.718-3.168-1.781-6.777-2.303-10.157-1.659l-91.896 17.513 17.512-91.896c.663-3.476.075-7.074-1.658-10.158-19.444-34.588-29.72-72.653-29.72-110.082 0-124.617 101.383-226 226-226s226 101.383 226 226-101.383 226-226 226zm132.384-186.401-47.625-23.813c-5.776-2.889-12.751-1.754-17.314 2.81l-17.932 17.931c-7.491.641-28.479-.699-56.316-28.538-27.839-27.839-29.177-48.822-28.537-56.315l17.932-17.931c4.565-4.565 5.697-11.541 2.81-17.315l-23.813-47.625c-6.547-13.094-18.589-21.949-33.04-24.294-14.452-2.345-28.677 2.247-39.028 12.599l-26.307 26.305c-8.727 8.727-13.416 20.396-13.206 32.858.485 28.798 11.466 87.275 79.55 155.357 61.784 61.785 122.61 75.512 153.369 78.195 13.468 1.172 26.583-3.586 36.009-13.013l25.144-25.143c10.353-10.352 14.944-24.577 12.6-39.028-2.347-14.449-11.201-26.492-24.296-33.04zm-9.519 50.856-25.144 25.144c-3.205 3.205-7.537 4.75-12.188 4.339-26.694-2.329-79.699-14.458-134.764-69.521-62.882-62.882-70.438-115.113-70.767-134.65-.072-4.258 1.499-8.214 4.424-11.139l26.306-26.304c7.248-7.247 19.443-5.262 24.023 3.898l18.977 37.954-13.568 13.568c-1.646 1.647-2.888 3.654-3.624 5.864-1.386 4.157-12.163 41.988 35.443 89.596 47.608 47.608 85.44 36.83 89.597 35.444 2.209-.736 4.217-1.977 5.863-3.624l13.569-13.569 37.954 18.978c9.168 4.582 11.148 16.773 3.899 24.022z"
                  fill="url(#SVGID_1_)"/>
        </g>
    </g>
</svg>
